# xmcd
#
# Track frame offsets:
#	150
#	17844
#	33488
#	51852
#	68541
#	88052
#	110639
#	130070
#	152464
#	179496
#	195932
#	218266
#	240248
#	241474
#	253861
#	272315
#	287784
#	328930
#
# Disc length: 4684 seconds
#
# Revision: 0
# Processed by: cddbd v1.5.2PL0 Copyright (c) Steve Scherf et al.
# Submitted via: EZCDAudioConverter 7.2.1.1
#
DISCID=f3124a12
DTITLE=Beyoncé Giselle Knowles - Dangerously In Love (Australian Edition)
DYEAR=2003
DGENRE=R&B
TTITLE0=Crazy In Love (Featuring Jay-Z)
TTITLE1=Naughty Girl
TTITLE2=Baby Boy (Featuring Sean Paul)
TTITLE3=Hip Hop Star (Featuring Big Boi and Sleepy Brown)
TTITLE4=Be With You
TTITLE5=Me, Myself And I
TTITLE6=Yes
TTITLE7=Signs (Featuring Missy Elliott)
TTITLE8=Speechless
TTITLE9=That's How You Like It (Featuring Jay-Z)
TTITLE10=The Closer I Get To You (Duet With Luther Vandross)
TTITLE11=Dangerously In Love 2
TTITLE12=Beyonce Interlude
TTITLE13=Gift From Virgo
TTITLE14=Work It Out
TTITLE15=Bonnie and Clyde '03
TTITLE16=Crazy In Love (Featuring Vanness Wu)
TTITLE17=Daddy
EXTD=
EXTT0=
EXTT1=
EXTT2=
EXTT3=
EXTT4=
EXTT5=
EXTT6=
EXTT7=
EXTT8=
EXTT9=
EXTT10=
EXTT11=
EXTT12=
EXTT13=
EXTT14=
EXTT15=
EXTT16=
EXTT17=
PLAYORDER=
